<svg version="1.0" xmlns="http://www.w3.org/2000/svg" width="64" height="64" viewBox="0 0 512.000000 512.000000" preserveAspectRatio="xMidYMid meet">

<g transform="translate(0.000000,512.000000) scale(0.100000,-0.100000)" fill="#000000" stroke="none">
<path d="M1739 3365 c-3 -2 -52 -11 -110 -20 -147 -21 -220 -51 -334 -136 -68
-50 -157 -189 -171 -267 -4 -20 -13 -49 -20 -64 -20 -39 -20 -664 -1 -711 8
-18 17 -50 21 -72 4 -22 16 -54 27 -71 10 -17 19 -38 19 -47 0 -9 6 -20 13
-24 7 -4 27 -28 45 -53 59 -81 201 -160 347 -194 286 -64 618 36 748 227 15
23 35 49 43 58 7 8 14 22 14 30 0 8 9 30 19 50 24 44 46 236 29 256 -14 18
-269 18 -286 1 -7 -7 -12 -41 -12 -83 0 -43 -5 -78 -14 -90 -7 -11 -17 -31
-21 -45 -11 -33 -63 -98 -95 -115 -171 -95 -369 -87 -488 20 -53 48 -102 134
-102 181 0 16 -6 36 -12 42 -18 18 -18 498 -1 533 6 13 14 46 16 72 3 26 12
56 20 65 9 9 18 29 22 44 8 32 74 100 118 121 61 28 132 47 181 47 63 0 171
-26 216 -53 94 -55 160 -167 160 -271 0 -35 5 -67 12 -74 18 -18 272 -17 286
1 8 9 8 43 1 112 -8 89 -15 110 -56 193 -44 86 -98 150 -185 218 -42 33 -189
86 -263 95 -44 5 -93 14 -109 19 -31 11 -70 13 -77 5z m235 -121 c16 -8 33
-14 38 -14 45 0 238 -140 238 -173 0 -6 7 -18 15 -27 23 -25 57 -129 62 -188
l5 -53 -49 3 -48 3 -8 50 c-5 28 -17 68 -28 91 -10 23 -19 45 -19 49 0 18 -85
106 -133 138 -118 77 -300 100 -443 55 -86 -27 -115 -44 -179 -107 -55 -55
-82 -102 -117 -206 -22 -67 -23 -83 -23 -350 0 -264 2 -284 23 -343 12 -34 22
-66 22 -72 0 -34 114 -164 168 -192 97 -49 154 -60 290 -57 76 3 135 9 143 15
8 7 28 15 46 18 17 4 37 14 44 22 6 8 17 14 25 14 7 0 34 21 60 47 64 67 74
78 74 89 0 5 8 23 17 39 9 17 21 59 27 95 l11 65 48 3 47 3 0 -47 c0 -50 -36
-152 -75 -213 -50 -79 -148 -153 -255 -192 -59 -21 -82 -23 -240 -23 -159 0
-181 2 -240 24 -36 13 -86 38 -112 57 -26 18 -52 33 -57 33 -5 0 -12 8 -15 18
-3 9 -21 34 -40 54 -19 21 -38 48 -42 60 -4 13 -15 39 -25 58 -11 19 -19 48
-19 65 0 16 -7 55 -15 85 -18 65 -21 493 -5 550 6 19 15 64 21 100 5 35 16 71
23 80 8 8 17 26 21 40 7 22 90 130 106 138 3 1 30 18 59 37 61 39 153 72 220
79 87 8 304 -5 334 -20z"></path>
<path d="M3290 3361 c-14 -5 -65 -14 -113 -20 -137 -18 -240 -71 -344 -176
-59 -60 -85 -94 -92 -123 -6 -22 -18 -45 -26 -52 -8 -7 -15 -26 -15 -41 0 -16
-9 -55 -20 -86 -18 -52 -20 -83 -20 -353 0 -234 3 -300 14 -315 7 -11 17 -40
20 -65 17 -109 131 -273 230 -331 110 -64 142 -77 206 -85 30 -4 70 -13 89
-20 49 -20 150 -17 281 10 156 31 247 74 338 161 73 68 79 77 125 172 41 84
62 268 33 292 -9 8 -57 11 -147 9 l-134 -3 -6 -90 c-7 -98 -22 -134 -88 -206
-43 -48 -90 -79 -122 -79 -13 0 -33 -7 -43 -15 -14 -11 -47 -15 -113 -15 -93
0 -112 5 -211 54 -73 35 -134 130 -147 226 -4 30 -11 60 -17 67 -14 18 -3 434
15 528 24 128 82 223 159 262 63 31 144 53 197 53 65 -1 188 -35 225 -64 43
-33 96 -85 96 -94 0 -4 10 -25 21 -47 15 -27 24 -67 28 -120 l6 -80 134 -3
c90 -2 138 1 147 9 27 22 8 213 -27 278 -10 20 -19 40 -20 46 -1 23 -70 104
-137 160 -44 37 -95 69 -134 84 -35 14 -68 28 -74 33 -6 5 -58 15 -115 24
-156 23 -172 24 -199 15z m282 -121 c77 -28 125 -54 179 -100 86 -72 150 -195
153 -292 l1 -53 -43 -3 c-48 -4 -54 5 -67 95 -4 29 -13 57 -21 64 -8 6 -14 17
-14 25 0 21 -99 134 -128 147 -15 6 -34 16 -42 23 -8 6 -48 22 -88 34 -62 19
-91 22 -186 19 -64 -2 -119 -9 -127 -15 -8 -7 -28 -15 -46 -18 -17 -4 -37 -14
-44 -22 -6 -8 -18 -14 -25 -14 -21 0 -107 -90 -138 -146 -16 -27 -39 -87 -52
-134 -22 -79 -24 -102 -23 -325 0 -238 2 -266 34 -379 38 -136 141 -237 285
-280 83 -25 263 -22 341 5 146 51 263 175 276 294 8 74 26 97 71 93 l37 -3 -1
-52 c-2 -57 -34 -145 -77 -210 -30 -45 -124 -133 -143 -133 -6 0 -17 -6 -23
-14 -7 -8 -27 -18 -44 -22 -18 -3 -37 -10 -43 -15 -6 -5 -42 -13 -80 -19 -138
-20 -338 -7 -400 25 -16 8 -34 15 -41 15 -26 0 -134 85 -171 134 -99 131 -117
219 -117 561 0 246 14 373 46 435 11 19 19 38 19 42 0 16 62 97 99 131 81 73
172 115 276 128 99 12 307 0 367 -21z"></path>
</g>
</svg>